<?xml version="1.0" encoding="utf-8"?>
<svg version="1.1" xmlns:xlink="http://www.w3.org/1999/xlink" width="29px" height="23px" xmlns="http://www.w3.org/2000/svg">
  <g transform="matrix(1 0 0 1 -105 -522 )">
    <path d="M 8.82083333333333 4.671875  C 9.38472222222222 5.23090277777778  9.66666666666667 5.90972222222222  9.66666666666667 6.70833333333333  C 9.66666666666667 7.50694444444444  9.38472222222222 8.18576388888889  8.82083333333333 8.74479166666667  C 8.25694444444445 9.30381944444445  7.57222222222222 9.58333333333333  6.76666666666667 9.58333333333333  C 5.96111111111111 9.58333333333333  5.27638888888889 9.30381944444445  4.7125 8.74479166666667  C 4.14861111111111 8.18576388888889  3.86666666666667 7.50694444444444  3.86666666666667 6.70833333333333  C 3.86666666666667 5.90972222222222  4.14861111111111 5.23090277777778  4.7125 4.671875  C 5.27638888888889 4.11284722222222  5.96111111111111 3.83333333333333  6.76666666666667 3.83333333333333  C 7.57222222222222 3.83333333333333  8.25694444444445 4.11284722222222  8.82083333333333 4.671875  Z M 18.85 6.22916666666667  L 25.1333333333333 12.4583333333333  L 25.1333333333333 19  L 3.86666666666667 19  L 3.86666666666667 16.2916666666667  L 8.7 11.5  L 11.1166666666667 13.8958333333333  L 18.85 6.22916666666667  Z M 26.9231770833333 2.05891927083333  C 26.8275173611111 1.96408420138889  26.7142361111111 1.91666666666667  26.5833333333333 2  L 2.41666666666667 2  C 2.28576388888889 1.91666666666667  2.17248263888889 1.96408420138889  2.07682291666667 2.05891927083333  C 1.98116319444444 2.15375434027778  1.93333333333333 2.26605902777778  2 2.39583333333333  L 2 20.6041666666667  C 1.93333333333333 20.7339409722222  1.98116319444444 20.8462456597222  2.07682291666667 20.9410807291667  C 2.17248263888889 21.0359157986111  2.28576388888889 21.0833333333333  2.41666666666667 21  L 26.5833333333333 21  C 26.7142361111111 21.0833333333333  26.8275173611111 21.0359157986111  26.9231770833333 20.9410807291667  C 27.0188368055556 20.8462456597222  27.0666666666667 20.7339409722222  27 20.6041666666667  L 27 2.39583333333333  C 27.0666666666667 2.26605902777778  27.0188368055556 2.15375434027778  26.9231770833333 2.05891927083333  Z M 28.2901041666667 0.703776041666668  C 28.7633680555556 1.17296006944444  29 1.73697916666667  29 2.39583333333333  L 29 20.6041666666667  C 29 21.2630208333333  28.7633680555556 21.8270399305556  28.2901041666667 22.2962239583333  C 27.8168402777778 22.7654079861111  27.2479166666667 23  26.5833333333333 23  L 2.41666666666667 23  C 1.75208333333333 23  1.18315972222222 22.7654079861111  0.709895833333333 22.2962239583333  C 0.236631944444444 21.8270399305556  0 21.2630208333333  0 20.6041666666667  L 0 2.39583333333333  C 0 1.73697916666667  0.236631944444444 1.17296006944444  0.709895833333333 0.703776041666668  C 1.18315972222222 0.234592013888887  1.75208333333333 0  2.41666666666667 0  L 26.5833333333333 0  C 27.2479166666667 0  27.8168402777778 0.234592013888887  28.2901041666667 0.703776041666668  Z " fill-rule="nonzero" fill="#9dc0e6" stroke="none" transform="matrix(1 0 0 1 105 522 )" />
  </g>
</svg>