<?xml version="1.0" encoding="utf-8"?>
<svg version="1.1" xmlns:xlink="http://www.w3.org/1999/xlink" width="20px" height="23px" xmlns="http://www.w3.org/2000/svg">
  <g transform="matrix(1 0 0 1 -105 -480 )">
    <path d="M 15.0520833333333 0.872767857142858  L 19.1145833333333 4.87723214285714  C 19.3576388888889 5.11681547619047  19.5659722222222 5.44196428571429  19.7395833333333 5.85267857142857  C 19.9131944444444 6.26339285714286  20 6.63988095238095  20 6.98214285714286  L 20 21.7678571428571  C 20 22.110119047619  19.8784722222222 22.4010416666667  19.6354166666667 22.640625  C 19.3923611111111 22.8802083333333  19.0972222222222 23  18.75 23  L 1.25 23  C 0.902777777777778 23  0.607638888888889 22.8802083333333  0.364583333333333 22.640625  C 0.121527777777778 22.4010416666667  0 22.110119047619  0 21.7678571428571  L 0 1.23214285714286  C 0 0.889880952380952  0.121527777777778 0.598958333333332  0.364583333333333 0.359375  C 0.607638888888889 0.119791666666668  0.902777777777778 0  1.25 0  L 12.9166666666667 0  C 13.2638888888889 0  13.6458333333333 0.0855654761904772  14.0625 0.256696428571429  C 14.4791666666667 0.427827380952381  14.8090277777778 0.633184523809523  15.0520833333333 0.872767857142858  Z M 13.8671875 2.02790178571429  C 13.7630208333333 1.92522321428571  13.5850694444444 1.83110119047619  13.3333333333333 1.74553571428571  L 13.3333333333333 6.57142857142857  L 18.2291666666667 6.57142857142857  C 18.1423611111111 6.32328869047619  18.046875 6.14787946428571  17.9427083333333 6.04520089285714  L 13.8671875 2.02790178571429  Z M 2 21  L 18 21  L 18 8.21428571428571  L 12.9166666666667 8.21428571428571  C 12.5694444444444 8.21428571428571  12.2743055555556 8.09449404761905  12.03125 7.85491071428571  C 11.7881944444444 7.61532738095238  11.6666666666667 7.32440476190476  11.6666666666667 6.98214285714286  L 11.6666666666667 2  L 2 2  L 2 21  Z M 9.73958333333333 10.69140625  C 10.2170138888889 12.0946800595238  10.8506944444444 13.1129092261905  11.640625 13.74609375  C 11.9270833333333 13.9685639880952  12.2916666666667 14.2081473214286  12.734375 14.46484375  C 13.2465277777778 14.4049479166667  13.7543402777778 14.375  14.2578125 14.375  C 15.5338541666667 14.375  16.3020833333333 14.5846354166667  16.5625 15.00390625  C 16.7013888888889 15.192150297619  16.7100694444444 15.4146205357143  16.5885416666667 15.6713169642857  C 16.5885416666667 15.6798735119048  16.5842013888889 15.6884300595238  16.5755208333333 15.6969866071429  L 16.5494791666667 15.72265625  L 16.5494791666667 15.7354910714286  C 16.4973958333333 16.0606398809524  16.1892361111111 16.2232142857143  15.625 16.2232142857143  C 15.2083333333333 16.2232142857143  14.7092013888889 16.1376488095238  14.1276041666667 15.9665178571429  C 13.5460069444444 15.7953869047619  12.9817708333333 15.5686383928571  12.4348958333333 15.2862723214286  C 10.5164930555556 15.4916294642857  8.81510416666667 15.8467261904762  7.33072916666667 16.3515625  C 6.00260416666667 18.5933779761905  4.95225694444444 19.7142857142857  4.1796875 19.7142857142857  C 4.04947916666667 19.7142857142857  3.92795138888889 19.684337797619  3.81510416666667 19.6244419642857  L 3.50260416666667 19.4704241071429  C 3.49392361111111 19.4618675595238  3.46788194444444 19.4404761904762  3.42447916666667 19.40625  C 3.33767361111111 19.3206845238095  3.31163194444444 19.1666666666667  3.34635416666667 18.9441964285714  C 3.42447916666667 18.6019345238095  3.66753472222222 18.2104724702381  4.07552083333333 17.7698102678571  C 4.48350694444444 17.3291480654762  5.05642361111111 16.9162946428571  5.79427083333333 16.53125  C 5.91579861111111 16.4542410714286  6.015625 16.4799107142857  6.09375 16.6082589285714  C 6.11111111111111 16.6253720238095  6.11979166666667 16.6424851190476  6.11979166666667 16.6595982142857  C 6.57118055555556 15.9322916666667  7.03559027777778 15.0894717261905  7.51302083333333 14.1311383928571  C 8.10329861111111 12.9674479166667  8.5546875 11.8465401785714  8.8671875 10.7684151785714  C 8.65885416666667 10.0667782738095  8.52647569444444 9.38439360119047  8.47005208333333 8.72126116071429  C 8.41362847222222 8.05812872023809  8.44184027777778 7.51264880952381  8.5546875 7.08482142857143  C 8.65017361111111 6.74255952380952  8.83246527777778 6.57142857142857  9.1015625 6.57142857142857  L 9.375 6.57142857142857  L 9.38802083333333 6.57142857142857  C 9.58767361111111 6.57142857142857  9.73958333333333 6.63560267857143  9.84375 6.76395089285714  C 10 6.94363839285714  10.0390625 7.23456101190476  9.9609375 7.63671875  C 9.94357638888889 7.68805803571429  9.92621527777778 7.72228422619047  9.90885416666667 7.73939732142857  C 9.91753472222222 7.76506696428571  9.921875 7.7992931547619  9.921875 7.84207589285714  L 9.921875 8.22712053571429  C 9.90451388888889 9.27957589285714  9.84375 10.1010044642857  9.73958333333333 10.69140625  Z M 4.78515625 18.0714285714286  C 4.46831597222222 18.4479166666667  4.25347222222222 18.7645089285714  4.140625 19.0212053571429  C 4.59201388888889 18.8158482142857  5.18663194444445 18.139880952381  5.92447916666667 16.9933035714286  C 5.48177083333333 17.3355654761905  5.10199652777778 17.6949404761905  4.78515625 18.0714285714286  Z M 9.32291666666667 7.1875  L 9.32291666666667 7.21316964285714  C 9.19270833333333 7.57254464285714  9.18402777777778 8.13727678571429  9.296875 8.90736607142857  C 9.30555555555556 8.84747023809524  9.3359375 8.65922619047619  9.38802083333333 8.34263392857143  C 9.38802083333333 8.31696428571429  9.41840277777778 8.13299851190476  9.47916666666667 7.79073660714286  C 9.48784722222222 7.75651041666667  9.50520833333333 7.72228422619047  9.53125 7.68805803571429  C 9.52256944444444 7.67950148809524  9.51822916666667 7.67094494047619  9.51822916666667 7.66238839285714  C 9.50954861111111 7.64527529761905  9.50520833333333 7.63244047619047  9.50520833333333 7.62388392857143  C 9.49652777777778 7.43563988095238  9.44010416666667 7.28162202380952  9.3359375 7.16183035714286  C 9.3359375 7.1703869047619  9.33159722222222 7.17894345238095  9.32291666666667 7.1875  Z M 8.29427083333333 14.6316964285714  C 8.03385416666667 15.1108630952381  7.83854166666667 15.4659598214286  7.70833333333333 15.6969866071429  C 8.88020833333333 15.2349330357143  10.1128472222222 14.8883928571429  11.40625 14.6573660714286  C 11.3888888888889 14.6488095238095  11.3324652777778 14.608165922619  11.2369791666667 14.5354352678571  C 11.1414930555556 14.4627046130952  11.0720486111111 14.4049479166667  11.0286458333333 14.3621651785714  C 10.3689236111111 13.7888764880952  9.81770833333334 13.035900297619  9.375 12.1032366071429  C 9.140625 12.839099702381  8.78038194444444 13.6819196428571  8.29427083333333 14.6316964285714  Z M 16.1458333333333 15.5301339285714  C 16.1458333333333 15.5215773809524  16.1371527777778 15.5087425595238  16.1197916666667 15.4916294642857  C 15.9114583333333 15.2862723214286  15.3038194444444 15.18359375  14.296875 15.18359375  C 14.9565972222222 15.4231770833333  15.4947916666667 15.54296875  15.9114583333333 15.54296875  C 16.0329861111111 15.54296875  16.1111111111111 15.5386904761905  16.1458333333333 15.5301339285714  Z " fill-rule="nonzero" fill="#d9001b" stroke="none" transform="matrix(1 0 0 1 105 480 )" />
  </g>
</svg>